<mxfile host="Electron" agent="Mozilla/5.0 (Windows NT 10.0; Win64; x64) AppleWebKit/537.36 (KHTML, like Gecko) draw.io/27.0.9 Chrome/134.0.6998.205 Electron/35.4.0 Safari/537.36" version="27.0.9">
  <diagram name="Страница — 1" id="PwJflrJGW8m4xKfmRMKp">
    <mxGraphModel dx="3140" dy="1472" grid="1" gridSize="10" guides="1" tooltips="1" connect="1" arrows="1" fold="1" page="1" pageScale="1" pageWidth="827" pageHeight="1169" math="0" shadow="0">
      <root>
        <mxCell id="0" />
        <mxCell id="1" parent="0" />
        <mxCell id="kGQ8Buv_UoKrp05TsAXT-2" value="Компания" style="swimlane;html=1;childLayout=stackLayout;resizeParent=1;resizeParentMax=0;horizontal=0;startSize=20;horizontalStack=0;whiteSpace=wrap;" parent="1" vertex="1">
          <mxGeometry x="10" y="510" width="2130" height="600" as="geometry" />
        </mxCell>
        <mxCell id="kGQ8Buv_UoKrp05TsAXT-5" value="Отдел продаж" style="swimlane;html=1;startSize=20;horizontal=0;" parent="kGQ8Buv_UoKrp05TsAXT-2" vertex="1">
          <mxGeometry x="20" width="2110" height="420" as="geometry" />
        </mxCell>
        <mxCell id="kGQ8Buv_UoKrp05TsAXT-6" value="Пришел новый заказ" style="points=[[0.145,0.145,0],[0.5,0,0],[0.855,0.145,0],[1,0.5,0],[0.855,0.855,0],[0.5,1,0],[0.145,0.855,0],[0,0.5,0]];shape=mxgraph.bpmn.event;html=1;verticalLabelPosition=bottom;labelBackgroundColor=#ffffff;verticalAlign=top;align=center;perimeter=ellipsePerimeter;outlineConnect=0;aspect=fixed;outline=standard;symbol=message;" parent="kGQ8Buv_UoKrp05TsAXT-5" vertex="1">
          <mxGeometry x="60" y="230" width="50" height="50" as="geometry" />
        </mxCell>
        <mxCell id="kGQ8Buv_UoKrp05TsAXT-7" value="Проверить корректность данных для заказа" style="points=[[0.25,0,0],[0.5,0,0],[0.75,0,0],[1,0.25,0],[1,0.5,0],[1,0.75,0],[0.75,1,0],[0.5,1,0],[0.25,1,0],[0,0.75,0],[0,0.5,0],[0,0.25,0]];shape=mxgraph.bpmn.task2;whiteSpace=wrap;rectStyle=rounded;size=10;html=1;container=1;expand=0;collapsible=0;taskMarker=abstract;" parent="kGQ8Buv_UoKrp05TsAXT-5" vertex="1">
          <mxGeometry x="150" y="215" width="120" height="80" as="geometry" />
        </mxCell>
        <mxCell id="kGQ8Buv_UoKrp05TsAXT-8" style="edgeStyle=orthogonalEdgeStyle;rounded=0;orthogonalLoop=1;jettySize=auto;html=1;exitX=1;exitY=0.5;exitDx=0;exitDy=0;exitPerimeter=0;entryX=0;entryY=0.5;entryDx=0;entryDy=0;entryPerimeter=0;" parent="kGQ8Buv_UoKrp05TsAXT-5" source="kGQ8Buv_UoKrp05TsAXT-6" target="kGQ8Buv_UoKrp05TsAXT-7" edge="1">
          <mxGeometry relative="1" as="geometry" />
        </mxCell>
        <mxCell id="kGQ8Buv_UoKrp05TsAXT-9" value="Данные для заказа&amp;nbsp;&lt;div&gt;&lt;span style=&quot;background-color: light-dark(rgb(255, 255, 255), rgb(18, 18, 18)); color: light-dark(rgb(0, 0, 0), rgb(255, 255, 255));&quot;&gt;заполнены корректно?&lt;/span&gt;&lt;/div&gt;" style="points=[[0.25,0.25,0],[0.5,0,0],[0.75,0.25,0],[1,0.5,0],[0.75,0.75,0],[0.5,1,0],[0.25,0.75,0],[0,0.5,0]];shape=mxgraph.bpmn.gateway2;html=1;verticalLabelPosition=bottom;labelBackgroundColor=#ffffff;verticalAlign=top;align=center;perimeter=rhombusPerimeter;outlineConnect=0;outline=none;symbol=none;gwType=exclusive;" parent="kGQ8Buv_UoKrp05TsAXT-5" vertex="1">
          <mxGeometry x="320" y="230" width="50" height="50" as="geometry" />
        </mxCell>
        <mxCell id="kGQ8Buv_UoKrp05TsAXT-10" style="edgeStyle=orthogonalEdgeStyle;rounded=0;orthogonalLoop=1;jettySize=auto;html=1;exitX=1;exitY=0.5;exitDx=0;exitDy=0;exitPerimeter=0;entryX=0;entryY=0.5;entryDx=0;entryDy=0;entryPerimeter=0;" parent="kGQ8Buv_UoKrp05TsAXT-5" source="kGQ8Buv_UoKrp05TsAXT-7" target="kGQ8Buv_UoKrp05TsAXT-9" edge="1">
          <mxGeometry relative="1" as="geometry" />
        </mxCell>
        <mxCell id="kGQ8Buv_UoKrp05TsAXT-18" value="Нет" style="edgeStyle=orthogonalEdgeStyle;rounded=0;orthogonalLoop=1;jettySize=auto;html=1;exitX=0.5;exitY=1;exitDx=0;exitDy=0;exitPerimeter=0;entryX=0;entryY=0.5;entryDx=0;entryDy=0;entryPerimeter=0;" parent="kGQ8Buv_UoKrp05TsAXT-5" source="kGQ8Buv_UoKrp05TsAXT-9" target="kGQ8Buv_UoKrp05TsAXT-19" edge="1">
          <mxGeometry x="0.0668" y="-15" relative="1" as="geometry">
            <mxPoint x="430" y="335" as="targetPoint" />
            <mxPoint as="offset" />
          </mxGeometry>
        </mxCell>
        <mxCell id="kGQ8Buv_UoKrp05TsAXT-19" value="Скорректировать данные для заказа" style="points=[[0.25,0,0],[0.5,0,0],[0.75,0,0],[1,0.25,0],[1,0.5,0],[1,0.75,0],[0.75,1,0],[0.5,1,0],[0.25,1,0],[0,0.75,0],[0,0.5,0],[0,0.25,0]];shape=mxgraph.bpmn.task2;whiteSpace=wrap;rectStyle=rounded;size=10;html=1;container=1;expand=0;collapsible=0;taskMarker=abstract;isLoopStandard=1;" parent="kGQ8Buv_UoKrp05TsAXT-5" vertex="1">
          <mxGeometry x="440" y="295" width="120" height="80" as="geometry" />
        </mxCell>
        <mxCell id="kGQ8Buv_UoKrp05TsAXT-20" style="edgeStyle=orthogonalEdgeStyle;rounded=0;orthogonalLoop=1;jettySize=auto;html=1;exitX=0.5;exitY=1;exitDx=0;exitDy=0;exitPerimeter=0;entryX=0.5;entryY=1;entryDx=0;entryDy=0;entryPerimeter=0;" parent="kGQ8Buv_UoKrp05TsAXT-5" source="kGQ8Buv_UoKrp05TsAXT-19" target="kGQ8Buv_UoKrp05TsAXT-7" edge="1">
          <mxGeometry relative="1" as="geometry" />
        </mxCell>
        <mxCell id="kGQ8Buv_UoKrp05TsAXT-25" style="edgeStyle=orthogonalEdgeStyle;rounded=0;orthogonalLoop=1;jettySize=auto;html=1;exitX=1;exitY=0.5;exitDx=0;exitDy=0;exitPerimeter=0;entryX=0;entryY=0.5;entryDx=0;entryDy=0;entryPerimeter=0;" parent="kGQ8Buv_UoKrp05TsAXT-5" source="kGQ8Buv_UoKrp05TsAXT-22" target="kGQ8Buv_UoKrp05TsAXT-26" edge="1">
          <mxGeometry relative="1" as="geometry">
            <mxPoint x="630" y="209.8620689655172" as="targetPoint" />
          </mxGeometry>
        </mxCell>
        <mxCell id="kGQ8Buv_UoKrp05TsAXT-22" value="Проверить наличие товаров на складе" style="points=[[0.25,0,0],[0.5,0,0],[0.75,0,0],[1,0.25,0],[1,0.5,0],[1,0.75,0],[0.75,1,0],[0.5,1,0],[0.25,1,0],[0,0.75,0],[0,0.5,0],[0,0.25,0]];shape=mxgraph.bpmn.task2;whiteSpace=wrap;rectStyle=rounded;size=10;html=1;container=1;expand=0;collapsible=0;taskMarker=abstract;" parent="kGQ8Buv_UoKrp05TsAXT-5" vertex="1">
          <mxGeometry x="440" y="170" width="120" height="80" as="geometry" />
        </mxCell>
        <mxCell id="kGQ8Buv_UoKrp05TsAXT-23" style="edgeStyle=orthogonalEdgeStyle;rounded=0;orthogonalLoop=1;jettySize=auto;html=1;exitX=0.5;exitY=0;exitDx=0;exitDy=0;exitPerimeter=0;entryX=0;entryY=0.5;entryDx=0;entryDy=0;entryPerimeter=0;" parent="kGQ8Buv_UoKrp05TsAXT-5" source="kGQ8Buv_UoKrp05TsAXT-9" target="kGQ8Buv_UoKrp05TsAXT-22" edge="1">
          <mxGeometry relative="1" as="geometry" />
        </mxCell>
        <mxCell id="kGQ8Buv_UoKrp05TsAXT-24" value="Да" style="edgeLabel;html=1;align=center;verticalAlign=middle;resizable=0;points=[];" parent="kGQ8Buv_UoKrp05TsAXT-23" vertex="1" connectable="0">
          <mxGeometry x="-0.0297" relative="1" as="geometry">
            <mxPoint x="-16" y="-10" as="offset" />
          </mxGeometry>
        </mxCell>
        <mxCell id="kGQ8Buv_UoKrp05TsAXT-26" value="Товар в наличии?" style="points=[[0.25,0.25,0],[0.5,0,0],[0.75,0.25,0],[1,0.5,0],[0.75,0.75,0],[0.5,1,0],[0.25,0.75,0],[0,0.5,0]];shape=mxgraph.bpmn.gateway2;html=1;verticalLabelPosition=bottom;labelBackgroundColor=#ffffff;verticalAlign=top;align=center;perimeter=rhombusPerimeter;outlineConnect=0;outline=none;symbol=none;gwType=exclusive;" parent="kGQ8Buv_UoKrp05TsAXT-5" vertex="1">
          <mxGeometry x="630" y="185" width="50" height="50" as="geometry" />
        </mxCell>
        <mxCell id="CZ9H0T8DiMWSDHt1No1j-87" value="Отправить наряд на производство" style="points=[[0.25,0,0],[0.5,0,0],[0.75,0,0],[1,0.25,0],[1,0.5,0],[1,0.75,0],[0.75,1,0],[0.5,1,0],[0.25,1,0],[0,0.75,0],[0,0.5,0],[0,0.25,0]];shape=mxgraph.bpmn.task2;whiteSpace=wrap;rectStyle=rounded;size=10;html=1;container=1;expand=0;collapsible=0;taskMarker=send;" vertex="1" parent="kGQ8Buv_UoKrp05TsAXT-5">
          <mxGeometry x="710" y="90" width="120" height="80" as="geometry" />
        </mxCell>
        <mxCell id="CZ9H0T8DiMWSDHt1No1j-91" value="" style="dashed=1;dashPattern=8 4;endArrow=blockThin;endFill=1;startArrow=oval;startFill=0;endSize=6;startSize=4;html=1;rounded=0;entryX=0.5;entryY=1;entryDx=0;entryDy=0;entryPerimeter=0;" edge="1" parent="CZ9H0T8DiMWSDHt1No1j-87" target="CZ9H0T8DiMWSDHt1No1j-92">
          <mxGeometry width="160" relative="1" as="geometry">
            <mxPoint x="60" y="-5" as="sourcePoint" />
            <mxPoint x="60" y="-145" as="targetPoint" />
          </mxGeometry>
        </mxCell>
        <mxCell id="kGQ8Buv_UoKrp05TsAXT-30" style="edgeStyle=orthogonalEdgeStyle;rounded=0;orthogonalLoop=1;jettySize=auto;html=1;exitX=0.5;exitY=0;exitDx=0;exitDy=0;exitPerimeter=0;entryX=0;entryY=0.5;entryDx=0;entryDy=0;entryPerimeter=0;" parent="kGQ8Buv_UoKrp05TsAXT-5" source="kGQ8Buv_UoKrp05TsAXT-26" target="CZ9H0T8DiMWSDHt1No1j-87" edge="1">
          <mxGeometry relative="1" as="geometry" />
        </mxCell>
        <mxCell id="CZ9H0T8DiMWSDHt1No1j-88" value="Нет" style="edgeLabel;html=1;align=center;verticalAlign=middle;resizable=0;points=[];" vertex="1" connectable="0" parent="kGQ8Buv_UoKrp05TsAXT-30">
          <mxGeometry x="0.2243" y="-1" relative="1" as="geometry">
            <mxPoint x="-3" y="-16" as="offset" />
          </mxGeometry>
        </mxCell>
        <mxCell id="CZ9H0T8DiMWSDHt1No1j-6" value="Заказ выполнен" style="points=[[0.145,0.145,0],[0.5,0,0],[0.855,0.145,0],[1,0.5,0],[0.855,0.855,0],[0.5,1,0],[0.145,0.855,0],[0,0.5,0]];shape=mxgraph.bpmn.event;html=1;verticalLabelPosition=bottom;labelBackgroundColor=#ffffff;verticalAlign=top;align=center;perimeter=ellipsePerimeter;outlineConnect=0;aspect=fixed;outline=throwing;symbol=general;" vertex="1" parent="kGQ8Buv_UoKrp05TsAXT-5">
          <mxGeometry x="1420" y="265" width="50" height="50" as="geometry" />
        </mxCell>
        <mxCell id="CZ9H0T8DiMWSDHt1No1j-7" value="" style="points=[[0.25,0.25,0],[0.5,0,0],[0.75,0.25,0],[1,0.5,0],[0.75,0.75,0],[0.5,1,0],[0.25,0.75,0],[0,0.5,0]];shape=mxgraph.bpmn.gateway2;html=1;verticalLabelPosition=bottom;labelBackgroundColor=#ffffff;verticalAlign=top;align=center;perimeter=rhombusPerimeter;outlineConnect=0;outline=none;symbol=none;gwType=parallel;" vertex="1" parent="kGQ8Buv_UoKrp05TsAXT-5">
          <mxGeometry x="1510" y="265" width="50" height="50" as="geometry" />
        </mxCell>
        <mxCell id="CZ9H0T8DiMWSDHt1No1j-8" style="edgeStyle=orthogonalEdgeStyle;rounded=0;orthogonalLoop=1;jettySize=auto;html=1;exitX=1;exitY=0.5;exitDx=0;exitDy=0;exitPerimeter=0;entryX=0;entryY=0.5;entryDx=0;entryDy=0;entryPerimeter=0;" edge="1" parent="kGQ8Buv_UoKrp05TsAXT-5" source="CZ9H0T8DiMWSDHt1No1j-6" target="CZ9H0T8DiMWSDHt1No1j-7">
          <mxGeometry relative="1" as="geometry" />
        </mxCell>
        <mxCell id="CZ9H0T8DiMWSDHt1No1j-11" value="Организовать доставку" style="points=[[0.25,0,0],[0.5,0,0],[0.75,0,0],[1,0.25,0],[1,0.5,0],[1,0.75,0],[0.75,1,0],[0.5,1,0],[0.25,1,0],[0,0.75,0],[0,0.5,0],[0,0.25,0]];shape=mxgraph.bpmn.task2;whiteSpace=wrap;rectStyle=rounded;size=10;html=1;container=1;expand=0;collapsible=0;taskMarker=abstract;" vertex="1" parent="kGQ8Buv_UoKrp05TsAXT-5">
          <mxGeometry x="1600" y="90" width="120" height="80" as="geometry" />
        </mxCell>
        <mxCell id="CZ9H0T8DiMWSDHt1No1j-12" style="edgeStyle=orthogonalEdgeStyle;rounded=0;orthogonalLoop=1;jettySize=auto;html=1;exitX=0.5;exitY=0;exitDx=0;exitDy=0;exitPerimeter=0;entryX=0;entryY=0.5;entryDx=0;entryDy=0;entryPerimeter=0;" edge="1" parent="kGQ8Buv_UoKrp05TsAXT-5" source="CZ9H0T8DiMWSDHt1No1j-7" target="CZ9H0T8DiMWSDHt1No1j-11">
          <mxGeometry relative="1" as="geometry" />
        </mxCell>
        <mxCell id="CZ9H0T8DiMWSDHt1No1j-34" value="Переместить накладную в архив" style="points=[[0.25,0,0],[0.5,0,0],[0.75,0,0],[1,0.25,0],[1,0.5,0],[1,0.75,0],[0.75,1,0],[0.5,1,0],[0.25,1,0],[0,0.75,0],[0,0.5,0],[0,0.25,0]];shape=mxgraph.bpmn.task2;whiteSpace=wrap;rectStyle=rounded;size=10;html=1;container=1;expand=0;collapsible=0;taskMarker=abstract;" vertex="1" parent="kGQ8Buv_UoKrp05TsAXT-5">
          <mxGeometry x="1790" y="90" width="120" height="80" as="geometry" />
        </mxCell>
        <mxCell id="CZ9H0T8DiMWSDHt1No1j-35" style="edgeStyle=orthogonalEdgeStyle;rounded=0;orthogonalLoop=1;jettySize=auto;html=1;exitX=1;exitY=0.5;exitDx=0;exitDy=0;exitPerimeter=0;entryX=0;entryY=0.5;entryDx=0;entryDy=0;entryPerimeter=0;" edge="1" parent="kGQ8Buv_UoKrp05TsAXT-5" source="CZ9H0T8DiMWSDHt1No1j-11" target="CZ9H0T8DiMWSDHt1No1j-34">
          <mxGeometry relative="1" as="geometry" />
        </mxCell>
        <mxCell id="CZ9H0T8DiMWSDHt1No1j-36" value="Заказ готов к отгрузке" style="points=[[0.145,0.145,0],[0.5,0,0],[0.855,0.145,0],[1,0.5,0],[0.855,0.855,0],[0.5,1,0],[0.145,0.855,0],[0,0.5,0]];shape=mxgraph.bpmn.event;html=1;verticalLabelPosition=bottom;labelBackgroundColor=#ffffff;verticalAlign=top;align=center;perimeter=ellipsePerimeter;outlineConnect=0;aspect=fixed;outline=end;symbol=terminate2;" vertex="1" parent="kGQ8Buv_UoKrp05TsAXT-5">
          <mxGeometry x="2038" y="265" width="50" height="50" as="geometry" />
        </mxCell>
        <mxCell id="CZ9H0T8DiMWSDHt1No1j-37" style="edgeStyle=orthogonalEdgeStyle;rounded=0;orthogonalLoop=1;jettySize=auto;html=1;exitX=1;exitY=0.5;exitDx=0;exitDy=0;exitPerimeter=0;entryX=0;entryY=0.5;entryDx=0;entryDy=0;entryPerimeter=0;" edge="1" parent="kGQ8Buv_UoKrp05TsAXT-5" source="CZ9H0T8DiMWSDHt1No1j-116" target="CZ9H0T8DiMWSDHt1No1j-36">
          <mxGeometry relative="1" as="geometry" />
        </mxCell>
        <mxCell id="kGQ8Buv_UoKrp05TsAXT-31" style="edgeStyle=orthogonalEdgeStyle;rounded=0;orthogonalLoop=1;jettySize=auto;html=1;exitX=0.5;exitY=1;exitDx=0;exitDy=0;exitPerimeter=0;entryX=0;entryY=0.5;entryDx=0;entryDy=0;entryPerimeter=0;" parent="kGQ8Buv_UoKrp05TsAXT-5" source="kGQ8Buv_UoKrp05TsAXT-26" edge="1" target="CZ9H0T8DiMWSDHt1No1j-6">
          <mxGeometry relative="1" as="geometry">
            <mxPoint x="790" y="320" as="targetPoint" />
          </mxGeometry>
        </mxCell>
        <mxCell id="kGQ8Buv_UoKrp05TsAXT-33" value="Да" style="edgeLabel;html=1;align=center;verticalAlign=middle;resizable=0;points=[];" parent="kGQ8Buv_UoKrp05TsAXT-31" vertex="1" connectable="0">
          <mxGeometry x="-0.2929" y="2" relative="1" as="geometry">
            <mxPoint x="-156" y="14" as="offset" />
          </mxGeometry>
        </mxCell>
        <mxCell id="CZ9H0T8DiMWSDHt1No1j-110" value="Товар произведен" style="points=[[0.145,0.145,0],[0.5,0,0],[0.855,0.145,0],[1,0.5,0],[0.855,0.855,0],[0.5,1,0],[0.145,0.855,0],[0,0.5,0]];shape=mxgraph.bpmn.event;html=1;verticalLabelPosition=bottom;labelBackgroundColor=#ffffff;verticalAlign=top;align=center;perimeter=ellipsePerimeter;outlineConnect=0;aspect=fixed;outline=catching;symbol=message;" vertex="1" parent="kGQ8Buv_UoKrp05TsAXT-5">
          <mxGeometry x="1265" y="105" width="50" height="50" as="geometry" />
        </mxCell>
        <mxCell id="CZ9H0T8DiMWSDHt1No1j-112" style="edgeStyle=orthogonalEdgeStyle;rounded=0;orthogonalLoop=1;jettySize=auto;html=1;exitX=1;exitY=0.5;exitDx=0;exitDy=0;exitPerimeter=0;entryX=0;entryY=0.5;entryDx=0;entryDy=0;entryPerimeter=0;" edge="1" parent="kGQ8Buv_UoKrp05TsAXT-5" source="CZ9H0T8DiMWSDHt1No1j-87" target="CZ9H0T8DiMWSDHt1No1j-110">
          <mxGeometry relative="1" as="geometry" />
        </mxCell>
        <mxCell id="CZ9H0T8DiMWSDHt1No1j-113" style="edgeStyle=orthogonalEdgeStyle;rounded=0;orthogonalLoop=1;jettySize=auto;html=1;exitX=1;exitY=0.5;exitDx=0;exitDy=0;exitPerimeter=0;entryX=0.5;entryY=0;entryDx=0;entryDy=0;entryPerimeter=0;" edge="1" parent="kGQ8Buv_UoKrp05TsAXT-5" source="CZ9H0T8DiMWSDHt1No1j-110" target="CZ9H0T8DiMWSDHt1No1j-6">
          <mxGeometry relative="1" as="geometry" />
        </mxCell>
        <mxCell id="CZ9H0T8DiMWSDHt1No1j-116" value="" style="points=[[0.25,0.25,0],[0.5,0,0],[0.75,0.25,0],[1,0.5,0],[0.75,0.75,0],[0.5,1,0],[0.25,0.75,0],[0,0.5,0]];shape=mxgraph.bpmn.gateway2;html=1;verticalLabelPosition=bottom;labelBackgroundColor=#ffffff;verticalAlign=top;align=center;perimeter=rhombusPerimeter;outlineConnect=0;outline=none;symbol=none;gwType=parallel;" vertex="1" parent="kGQ8Buv_UoKrp05TsAXT-5">
          <mxGeometry x="1930" y="265" width="50" height="50" as="geometry" />
        </mxCell>
        <mxCell id="CZ9H0T8DiMWSDHt1No1j-117" value="" style="edgeStyle=orthogonalEdgeStyle;rounded=0;orthogonalLoop=1;jettySize=auto;html=1;exitX=1;exitY=0.5;exitDx=0;exitDy=0;exitPerimeter=0;entryX=0.5;entryY=0;entryDx=0;entryDy=0;entryPerimeter=0;" edge="1" parent="kGQ8Buv_UoKrp05TsAXT-5" source="CZ9H0T8DiMWSDHt1No1j-34" target="CZ9H0T8DiMWSDHt1No1j-116">
          <mxGeometry relative="1" as="geometry">
            <mxPoint x="1910" y="800" as="sourcePoint" />
            <mxPoint x="2068" y="800" as="targetPoint" />
          </mxGeometry>
        </mxCell>
        <mxCell id="CZ9H0T8DiMWSDHt1No1j-82" value="Менеджер по продажам" style="swimlane;startSize=20;horizontal=0;html=1;whiteSpace=wrap;" vertex="1" parent="kGQ8Buv_UoKrp05TsAXT-2">
          <mxGeometry x="20" y="420" width="2110" height="180" as="geometry" />
        </mxCell>
        <mxCell id="CZ9H0T8DiMWSDHt1No1j-9" value="Скорректировать отчет по продажам" style="points=[[0.25,0,0],[0.5,0,0],[0.75,0,0],[1,0.25,0],[1,0.5,0],[1,0.75,0],[0.75,1,0],[0.5,1,0],[0.25,1,0],[0,0.75,0],[0,0.5,0],[0,0.25,0]];shape=mxgraph.bpmn.task2;whiteSpace=wrap;rectStyle=rounded;size=10;html=1;container=1;expand=0;collapsible=0;taskMarker=abstract;" vertex="1" parent="CZ9H0T8DiMWSDHt1No1j-82">
          <mxGeometry x="1680" y="30" width="120" height="80" as="geometry" />
        </mxCell>
        <mxCell id="CZ9H0T8DiMWSDHt1No1j-10" style="edgeStyle=orthogonalEdgeStyle;rounded=0;orthogonalLoop=1;jettySize=auto;html=1;exitX=0.5;exitY=1;exitDx=0;exitDy=0;exitPerimeter=0;entryX=0;entryY=0.5;entryDx=0;entryDy=0;entryPerimeter=0;" edge="1" parent="kGQ8Buv_UoKrp05TsAXT-2" source="CZ9H0T8DiMWSDHt1No1j-7" target="CZ9H0T8DiMWSDHt1No1j-9">
          <mxGeometry relative="1" as="geometry" />
        </mxCell>
        <mxCell id="CZ9H0T8DiMWSDHt1No1j-38" style="edgeStyle=orthogonalEdgeStyle;rounded=0;orthogonalLoop=1;jettySize=auto;html=1;exitX=1;exitY=0.5;exitDx=0;exitDy=0;exitPerimeter=0;entryX=0.5;entryY=1;entryDx=0;entryDy=0;entryPerimeter=0;" edge="1" parent="kGQ8Buv_UoKrp05TsAXT-2" source="CZ9H0T8DiMWSDHt1No1j-9" target="CZ9H0T8DiMWSDHt1No1j-116">
          <mxGeometry relative="1" as="geometry" />
        </mxCell>
        <mxCell id="kGQ8Buv_UoKrp05TsAXT-4" value="Отдел производства" style="swimlane;html=1;startSize=20;horizontal=0;" parent="1" vertex="1">
          <mxGeometry x="10" y="130" width="2130" height="350" as="geometry" />
        </mxCell>
        <mxCell id="kGQ8Buv_UoKrp05TsAXT-29" value="Произвести товар" style="points=[[0.25,0,0],[0.5,0,0],[0.75,0,0],[1,0.25,0],[1,0.5,0],[1,0.75,0],[0.75,1,0],[0.5,1,0],[0.25,1,0],[0,0.75,0],[0,0.5,0],[0,0.25,0]];shape=mxgraph.bpmn.task2;whiteSpace=wrap;rectStyle=rounded;size=10;html=1;container=1;expand=0;collapsible=0;taskMarker=abstract;" parent="kGQ8Buv_UoKrp05TsAXT-4" vertex="1">
          <mxGeometry x="1250" y="52.5" width="120" height="80" as="geometry" />
        </mxCell>
        <mxCell id="CZ9H0T8DiMWSDHt1No1j-92" value="Получен наряд на производство" style="points=[[0.145,0.145,0],[0.5,0,0],[0.855,0.145,0],[1,0.5,0],[0.855,0.855,0],[0.5,1,0],[0.145,0.855,0],[0,0.5,0]];shape=mxgraph.bpmn.event;html=1;verticalLabelPosition=bottom;labelBackgroundColor=#ffffff;verticalAlign=top;align=center;perimeter=ellipsePerimeter;outlineConnect=0;aspect=fixed;outline=standard;symbol=message;" vertex="1" parent="kGQ8Buv_UoKrp05TsAXT-4">
          <mxGeometry x="767" y="157.5" width="50" height="50" as="geometry" />
        </mxCell>
        <mxCell id="CZ9H0T8DiMWSDHt1No1j-93" style="edgeStyle=orthogonalEdgeStyle;rounded=0;orthogonalLoop=1;jettySize=auto;html=1;exitX=0.5;exitY=0;exitDx=0;exitDy=0;exitPerimeter=0;entryX=0;entryY=0.5;entryDx=0;entryDy=0;entryPerimeter=0;" edge="1" parent="kGQ8Buv_UoKrp05TsAXT-4" source="CZ9H0T8DiMWSDHt1No1j-96" target="kGQ8Buv_UoKrp05TsAXT-29">
          <mxGeometry relative="1" as="geometry" />
        </mxCell>
        <mxCell id="CZ9H0T8DiMWSDHt1No1j-96" value="" style="points=[[0.25,0.25,0],[0.5,0,0],[0.75,0.25,0],[1,0.5,0],[0.75,0.75,0],[0.5,1,0],[0.25,0.75,0],[0,0.5,0]];shape=mxgraph.bpmn.gateway2;html=1;verticalLabelPosition=bottom;labelBackgroundColor=#ffffff;verticalAlign=top;align=center;perimeter=rhombusPerimeter;outlineConnect=0;outline=catching;symbol=multiple;" vertex="1" parent="kGQ8Buv_UoKrp05TsAXT-4">
          <mxGeometry x="870" y="157.5" width="50" height="50" as="geometry" />
        </mxCell>
        <mxCell id="CZ9H0T8DiMWSDHt1No1j-104" value="" style="edgeStyle=orthogonalEdgeStyle;rounded=0;orthogonalLoop=1;jettySize=auto;html=1;exitX=1;exitY=0.5;exitDx=0;exitDy=0;exitPerimeter=0;entryX=0;entryY=0.5;entryDx=0;entryDy=0;entryPerimeter=0;" edge="1" parent="kGQ8Buv_UoKrp05TsAXT-4" source="CZ9H0T8DiMWSDHt1No1j-92" target="CZ9H0T8DiMWSDHt1No1j-96">
          <mxGeometry relative="1" as="geometry">
            <mxPoint x="827" y="452.5" as="sourcePoint" />
            <mxPoint x="1121" y="452.5" as="targetPoint" />
          </mxGeometry>
        </mxCell>
        <mxCell id="CZ9H0T8DiMWSDHt1No1j-99" value="Истекает 2х-дневный лимит по времени" style="points=[[0.145,0.145,0],[0.5,0,0],[0.855,0.145,0],[1,0.5,0],[0.855,0.855,0],[0.5,1,0],[0.145,0.855,0],[0,0.5,0]];shape=mxgraph.bpmn.event;html=1;verticalLabelPosition=bottom;labelBackgroundColor=#ffffff;verticalAlign=top;align=center;perimeter=ellipsePerimeter;outlineConnect=0;aspect=fixed;outline=boundInt;symbol=timer;" vertex="1" parent="kGQ8Buv_UoKrp05TsAXT-4">
          <mxGeometry x="930" y="252.5" width="50" height="50" as="geometry" />
        </mxCell>
        <mxCell id="CZ9H0T8DiMWSDHt1No1j-101" style="edgeStyle=orthogonalEdgeStyle;rounded=0;orthogonalLoop=1;jettySize=auto;html=1;exitX=0.5;exitY=1;exitDx=0;exitDy=0;exitPerimeter=0;entryX=0;entryY=0.5;entryDx=0;entryDy=0;entryPerimeter=0;" edge="1" parent="kGQ8Buv_UoKrp05TsAXT-4" source="CZ9H0T8DiMWSDHt1No1j-96" target="CZ9H0T8DiMWSDHt1No1j-99">
          <mxGeometry relative="1" as="geometry" />
        </mxCell>
        <mxCell id="CZ9H0T8DiMWSDHt1No1j-105" value="Конец" style="points=[[0.145,0.145,0],[0.5,0,0],[0.855,0.145,0],[1,0.5,0],[0.855,0.855,0],[0.5,1,0],[0.145,0.855,0],[0,0.5,0]];shape=mxgraph.bpmn.event;html=1;verticalLabelPosition=bottom;labelBackgroundColor=#ffffff;verticalAlign=top;align=center;perimeter=ellipsePerimeter;outlineConnect=0;aspect=fixed;outline=end;symbol=terminate2;" vertex="1" parent="kGQ8Buv_UoKrp05TsAXT-4">
          <mxGeometry x="1430" y="67.5" width="50" height="50" as="geometry" />
        </mxCell>
        <mxCell id="CZ9H0T8DiMWSDHt1No1j-106" style="edgeStyle=orthogonalEdgeStyle;rounded=0;orthogonalLoop=1;jettySize=auto;html=1;exitX=1;exitY=0.5;exitDx=0;exitDy=0;exitPerimeter=0;entryX=0;entryY=0.5;entryDx=0;entryDy=0;entryPerimeter=0;" edge="1" parent="kGQ8Buv_UoKrp05TsAXT-4" source="kGQ8Buv_UoKrp05TsAXT-29" target="CZ9H0T8DiMWSDHt1No1j-105">
          <mxGeometry relative="1" as="geometry">
            <mxPoint x="1530" y="91.97" as="sourcePoint" />
            <mxPoint x="1550" y="91.5" as="targetPoint" />
          </mxGeometry>
        </mxCell>
        <mxCell id="CZ9H0T8DiMWSDHt1No1j-107" value="Нарастить темпы производства" style="points=[[0.25,0,0],[0.5,0,0],[0.75,0,0],[1,0.25,0],[1,0.5,0],[1,0.75,0],[0.75,1,0],[0.5,1,0],[0.25,1,0],[0,0.75,0],[0,0.5,0],[0,0.25,0]];shape=mxgraph.bpmn.task2;whiteSpace=wrap;rectStyle=rounded;size=10;html=1;container=1;expand=0;collapsible=0;taskMarker=abstract;" vertex="1" parent="kGQ8Buv_UoKrp05TsAXT-4">
          <mxGeometry x="1080" y="237.5" width="120" height="80" as="geometry" />
        </mxCell>
        <mxCell id="CZ9H0T8DiMWSDHt1No1j-108" style="edgeStyle=orthogonalEdgeStyle;rounded=0;orthogonalLoop=1;jettySize=auto;html=1;exitX=1;exitY=0.5;exitDx=0;exitDy=0;exitPerimeter=0;entryX=0;entryY=0.5;entryDx=0;entryDy=0;entryPerimeter=0;" edge="1" parent="kGQ8Buv_UoKrp05TsAXT-4" source="CZ9H0T8DiMWSDHt1No1j-99" target="CZ9H0T8DiMWSDHt1No1j-107">
          <mxGeometry relative="1" as="geometry" />
        </mxCell>
        <mxCell id="CZ9H0T8DiMWSDHt1No1j-111" style="edgeStyle=orthogonalEdgeStyle;rounded=0;orthogonalLoop=1;jettySize=auto;html=1;exitX=1;exitY=0.5;exitDx=0;exitDy=0;exitPerimeter=0;entryX=0;entryY=0.75;entryDx=0;entryDy=0;entryPerimeter=0;" edge="1" parent="kGQ8Buv_UoKrp05TsAXT-4" source="CZ9H0T8DiMWSDHt1No1j-107" target="kGQ8Buv_UoKrp05TsAXT-29">
          <mxGeometry relative="1" as="geometry" />
        </mxCell>
        <mxCell id="CZ9H0T8DiMWSDHt1No1j-95" value="" style="dashed=1;dashPattern=8 4;endArrow=blockThin;endFill=1;startArrow=oval;startFill=0;endSize=6;startSize=4;html=1;rounded=0;exitX=0.5;exitY=1;exitDx=0;exitDy=0;exitPerimeter=0;entryX=0.5;entryY=0;entryDx=0;entryDy=0;entryPerimeter=0;" edge="1" parent="1" source="kGQ8Buv_UoKrp05TsAXT-29" target="CZ9H0T8DiMWSDHt1No1j-110">
          <mxGeometry width="160" relative="1" as="geometry">
            <mxPoint x="1475" y="315" as="sourcePoint" />
            <mxPoint x="1575" y="319.9999999999998" as="targetPoint" />
          </mxGeometry>
        </mxCell>
      </root>
    </mxGraphModel>
  </diagram>
</mxfile>
